<?xml version="1.0" encoding="UTF-8" standalone="no"?>
<!-- Creator: CorelDRAW X6 -->

<svg
   xmlns:dc="http://purl.org/dc/elements/1.1/"
   xmlns:cc="http://creativecommons.org/ns#"
   xmlns:rdf="http://www.w3.org/1999/02/22-rdf-syntax-ns#"
   xmlns:svg="http://www.w3.org/2000/svg"
   xmlns="http://www.w3.org/2000/svg"
   xmlns:sodipodi="http://sodipodi.sourceforge.net/DTD/sodipodi-0.dtd"
   xmlns:inkscape="http://www.inkscape.org/namespaces/inkscape"
   xml:space="preserve"
   width="14.2222in"
   height="14.2222in"
   version="1.1"
   style="shape-rendering:geometricPrecision; text-rendering:geometricPrecision; image-rendering:optimizeQuality; fill-rule:evenodd; clip-rule:evenodd"
   viewBox="0 0 14222 14222"
   id="svg12"
   sodipodi:docname="facebook.svg"
   inkscape:version="0.92.5 (2060ec1f9f, 2020-04-08)"><metadata
   id="metadata16"><rdf:RDF><cc:Work
       rdf:about=""><dc:format>image/svg+xml</dc:format><dc:type
         rdf:resource="http://purl.org/dc/dcmitype/StillImage" /></cc:Work></rdf:RDF></metadata><sodipodi:namedview
   pagecolor="#ffffff"
   bordercolor="#666666"
   borderopacity="1"
   objecttolerance="10"
   gridtolerance="10"
   guidetolerance="10"
   inkscape:pageopacity="0"
   inkscape:pageshadow="2"
   inkscape:window-width="1360"
   inkscape:window-height="717"
   id="namedview14"
   showgrid="false"
   inkscape:zoom="0.17285183"
   inkscape:cx="682.66562"
   inkscape:cy="682.66562"
   inkscape:window-x="0"
   inkscape:window-y="0"
   inkscape:window-maximized="1"
   inkscape:current-layer="svg12" />
 <defs
   id="defs4">
  <style
   type="text/css"
   id="style2">
   <![CDATA[
    .fil0 {fill:#1977F3;fill-rule:nonzero}
    .fil1 {fill:#FEFEFE;fill-rule:nonzero}
   ]]>
  </style>
 
  
  
  
 </defs>
 <path
   style="fill:#000000;fill-rule:nonzero"
   inkscape:connector-curvature="0"
   id="path7"
   d="m 14298.932,7171.2627 c 0,-3927 -3184,-7110.999988 -7111.0002,-7110.999988 -3927,0 -7111.000019,3183.999988 -7111.000019,7110.999988 0,3549.0003 2600.000019,6491.0003 6000.000019,7025.0003 V 9227.2627 h -1806 v -2056 h 1806 v -1567 c 0,-1782 1062,-2767 2686,-2767 778,0 1592.0002,139 1592.0002,139 v 1750 h -897.0002 c -883,0 -1159,548 -1159,1111 v 1334 h 1972.0002 l -315.0002,2056 h -1657 v 4969.0003 c 3400.0002,-533 6000.0002,-3475 6000.0002,-7025.0003 z"
   class="fil0" /><path
   style="fill:#fefefe;fill-rule:nonzero"
   inkscape:connector-curvature="0"
   id="path9"
   d="m 9955.9318,9227.2627 315.0002,-2056 H 8298.9318 v -1334 c 0,-562 275,-1111 1159,-1111 h 897.0002 v -1750 c 0,0 -814.0002,-139 -1592.0002,-139 -1624,0 -2686,984 -2686,2767 v 1567 H 4270.9321 v 2056 h 1805.9997 v 4969.0003 c 362,57 733,86 1111,86 378,0 749,-30 1111,-86 V 9227.2627 Z"
   class="fil1" />
</svg>